<mxfile host="65bd71144e">
    <diagram id="i1YLh9RKkgBx0VAHAG5V" name="Page-1">
        <mxGraphModel dx="861" dy="471" grid="1" gridSize="10" guides="1" tooltips="1" connect="1" arrows="1" fold="1" page="1" pageScale="1" pageWidth="850" pageHeight="1100" math="0" shadow="0">
            <root>
                <mxCell id="0"/>
                <mxCell id="1" parent="0"/>
                <mxCell id="2" value="TheBody" style="rounded=0;whiteSpace=wrap;html=1;verticalAlign=top;fontSize=22;" parent="1" vertex="1">
                    <mxGeometry x="120" y="40" width="600" height="600" as="geometry"/>
                </mxCell>
                <mxCell id="3" value="Orders" style="rounded=0;whiteSpace=wrap;html=1;verticalAlign=top;" parent="1" vertex="1">
                    <mxGeometry x="150" y="90" width="240" height="270" as="geometry"/>
                </mxCell>
                <mxCell id="4" value="&lt;span style=&quot;color: rgb(227, 227, 227); text-align: left; background-color: rgb(27, 27, 29);&quot;&gt;&lt;font style=&quot;font-size: 12px;&quot;&gt;Create or Remove&lt;/font&gt;&lt;/span&gt;" style="rounded=0;whiteSpace=wrap;html=1;verticalAlign=top;" parent="1" vertex="1">
                    <mxGeometry x="450" y="90" width="240" height="270" as="geometry"/>
                </mxCell>
                <mxCell id="6" value="" style="rounded=0;whiteSpace=wrap;html=1;" parent="1" vertex="1">
                    <mxGeometry x="170" y="195" width="200" height="60" as="geometry"/>
                </mxCell>
                <mxCell id="7" value="" style="rounded=0;whiteSpace=wrap;html=1;" parent="1" vertex="1">
                    <mxGeometry x="170" y="270" width="200" height="60" as="geometry"/>
                </mxCell>
                <mxCell id="8" value="" style="rounded=0;whiteSpace=wrap;html=1;fontFamily=Helvetica;fontSize=12;" parent="1" vertex="1">
                    <mxGeometry x="470" y="270" width="200" height="60" as="geometry"/>
                </mxCell>
                <mxCell id="9" value="" style="rounded=0;whiteSpace=wrap;html=1;fontFamily=Helvetica;fontSize=12;" parent="1" vertex="1">
                    <mxGeometry x="470" y="190" width="200" height="60" as="geometry"/>
                </mxCell>
                <mxCell id="10" value="" style="rounded=0;whiteSpace=wrap;html=1;fontFamily=Helvetica;fontSize=12;" parent="1" vertex="1">
                    <mxGeometry x="470" y="120" width="200" height="60" as="geometry"/>
                </mxCell>
                <mxCell id="5" value="Item" style="rounded=0;whiteSpace=wrap;html=1;verticalAlign=top;" parent="1" vertex="1">
                    <mxGeometry x="170" y="120" width="200" height="60" as="geometry"/>
                </mxCell>
                <mxCell id="15" value="Quantity" style="rounded=0;whiteSpace=wrap;html=1;fontFamily=Helvetica;fontSize=12;" parent="1" vertex="1">
                    <mxGeometry x="235" y="150" width="70" height="30" as="geometry"/>
                </mxCell>
                <mxCell id="16" value="Name" style="rounded=0;whiteSpace=wrap;html=1;fontFamily=Helvetica;fontSize=12;" parent="1" vertex="1">
                    <mxGeometry x="160" y="150" width="70" height="30" as="geometry"/>
                </mxCell>
                <mxCell id="17" value="Description" style="rounded=0;whiteSpace=wrap;html=1;fontFamily=Helvetica;fontSize=12;" parent="1" vertex="1">
                    <mxGeometry x="310" y="150" width="70" height="30" as="geometry"/>
                </mxCell>
            </root>
        </mxGraphModel>
    </diagram>
</mxfile>